<svg width="2385.8279" height="826.7833" xmlns="http://www.w3.org/2000/svg">

 <g>
  <title>background</title>
  <rect fill="none" id="canvas_background" height="828.7833" width="2387.8279" y="-1" x="-1"/>
 </g>
 <g>
  <title>Layer 1</title>
  <path stroke="null" id="svg_1" d="m762.826675,747.589591c-169.008303,65.917768 -417.438074,100.855371 -582.877993,9.573614c-145.588246,-80.328487 -238.620262,-208.992244 -127.505768,-330.153898c46.089549,-50.257078 123.937018,-90.966134 211.626187,-94.124534c100.843042,-3.632136 173.748664,47.536536 229.211459,100.159867c-41.169064,0.276904 -77.388965,-25.51587 -116.606883,-32.606419c-47.630991,-8.611646 -99.565714,-5.120648 -144.160863,9.2287c-90.315305,29.060689 -141.296001,100.365771 -115.499289,167.437424c65.309178,152.221889 335.763741,133.539884 468.996454,40.237853c166.965411,-116.92493 105.371088,-297.624205 166.097276,-442.074131c26.861287,-63.895162 84.993164,-116.937194 168.266883,-150.659033c97.771864,-39.592825 193.762608,-14.173192 268.387894,41.050727c64.431239,-47.680056 156.831357,-80.317642 246.331935,-49.324402c93.999797,32.551281 161.053807,89.309828 190.322915,158.932759c60.726261,144.449875 -0.868063,325.149201 166.097203,442.074131c133.232713,93.302031 403.687422,111.984087 468.996454,-40.237853c23.601059,-61.362939 -16.599639,-126.170252 -93.890714,-159.366258c-41.842371,-17.970994 -92.967048,-25.199843 -141.682733,-20.59611c-49.356069,4.664243 -92.329737,36.227964 -140.693588,35.902662c49.5727,-47.034673 115.38245,-96.213325 204.293637,-100.075792c90.74952,-3.942336 165.2745,31.57857 220.341857,78.549794c135.650704,115.70719 41.390086,245.641291 -91.130692,333.133049c-149.350582,104.361623 -408.193592,71.407148 -576.763072,12.90219c-187.283562,-68.989254 -339.754414,-175.463335 -452.223203,-299.324905c-53.756593,59.202084 -250.38143,220.889897 -425.935357,289.360564z"/>
 </g>
</svg>