<svg width="2112.8279" height="808.7833" xmlns="http://www.w3.org/2000/svg">

 <g>
  <title>background</title>
  <rect fill="none" id="canvas_background" height="810.7833" width="2114.8279" y="-1" x="-1"/>
 </g>
 <g>
  <title>Layer 1</title>
  <path stroke="null" id="svg_1" d="m677.441118,744.25628c-150.004931,65.917768 -370.501142,100.855371 -517.338919,9.573614c-129.218236,-80.328487 -211.789688,-208.992244 -113.16896,-330.153898c40.907218,-50.257078 110.001482,-90.966134 187.83084,-94.124534c89.504203,-3.632136 154.212283,47.536536 203.438815,100.159867c-36.539996,0.276904 -68.687314,-25.51587 -103.49555,-32.606419c-42.27534,-8.611646 -88.370498,-5.120648 -127.951348,9.2287c-80.16021,29.060689 -125.408612,100.365771 -102.512495,167.437424c57.965783,152.221889 298.010309,133.539884 416.262274,40.237853c148.191743,-116.92493 93.523113,-297.624205 147.421221,-442.074131c23.840991,-63.895162 75.436493,-116.937194 149.346876,-150.659033c86.77835,-39.592825 171.97585,-14.173192 238.210234,41.050727c57.18656,-47.680056 139.197166,-80.317642 218.634257,-49.324402c83.430416,32.551281 142.944841,89.309828 168.922918,158.932759c53.898172,144.449875 -0.770457,325.149201 147.421156,442.074131c118.251964,93.302031 358.29662,111.984087 416.262274,-40.237853c20.947345,-61.362939 -14.733167,-126.170252 -83.333598,-159.366258c-37.137595,-17.970994 -82.51379,-25.199843 -125.75186,-20.59611c-43.806449,4.664243 -81.948139,36.227964 -124.873935,35.902662c43.998723,-47.034673 102.408793,-96.213325 181.322765,-100.075792c80.545601,-3.942336 146.690958,31.57857 195.566516,78.549794c120.398076,115.70719 36.736165,245.641291 -80.883914,333.133049c-132.557533,104.361623 -362.296114,71.407148 -511.911563,12.90219c-166.225311,-68.989254 -301.552269,-175.463335 -401.375015,-299.324905c-47.712177,59.202084 -222.228425,220.889897 -378.042986,289.360564z"/>
 </g>
</svg>