<svg width="3293.8278999999998" height="1391.7833" xmlns="http://www.w3.org/2000/svg">

 <g>
  <title>background</title>
  <rect fill="#ffffff" id="canvas_background" height="1393.7833" width="3295.8279" y="-1" x="-1"/>
 </g>
 <g>
  <title>Layer 1</title>
  <path stroke="null" id="svg_1" d="m1054.33475,1273.357331c-233.144709,112.538052 -575.850279,172.185244 -804.072449,16.344544c-200.837052,-137.14074 -329.173482,-356.801828 -175.892514,-563.654955c63.57992,-85.801353 170.96947,-155.301854 291.935514,-160.694028c139.111637,-6.200962 239.683974,81.15671 316.194163,170.997846c-56.792178,0.472744 -106.75705,-43.561947 -160.857646,-55.667281c-65.706319,-14.702225 -137.349579,-8.742222 -198.867996,15.755691c-124.588764,49.613835 -194.915956,171.349376 -159.329735,285.857397c90.093143,259.880689 463.181621,227.985852 646.974379,68.69604c230.326567,-199.619985 145.358016,-508.118666 229.128986,-754.730676c37.054788,-109.08496 117.246941,-199.640922 232.121931,-257.212504c134.874988,-67.594816 267.292945,-24.197169 370.237534,70.083818c88.882038,-81.401734 216.346774,-137.122224 339.811633,-84.209042c129.671472,55.573147 222.171587,152.474127 262.547934,271.337815c83.771071,246.611924 -1.197481,555.110691 229.128885,754.730676c183.792758,159.289812 556.881437,191.184735 646.974379,-68.69604c32.557347,-104.761824 -22.898981,-215.404054 -129.520992,-272.077906c-57.720995,-30.680964 -128.246808,-43.02241 -195.449448,-35.16269c-68.086041,7.963024 -127.367646,61.85016 -194.084936,61.294789c68.384881,-80.299904 159.168557,-164.260116 281.820359,-170.85431c125.187757,-6.730549 227.993978,53.912486 303.958665,134.104067c187.128345,197.541 57.097073,419.37088 -125.713579,568.741109c-206.027145,178.17129 -563.097639,121.909792 -795.636997,22.027252c-258.355187,-117.781845 -468.686702,-299.559627 -623.835901,-511.022184c-74.156506,101.072706 -345.397858,377.114084 -587.572167,494.010572z"/>
  <line stroke-linecap="null" stroke-linejoin="null" id="svg_3" y2="708.157393" x2="3686.931507" y1="708.157393" x1="3681.931464" fill-opacity="null" stroke-opacity="null" stroke-width="null" stroke="null" fill="none"/>
  <line stroke="null" stroke-linecap="null" stroke-linejoin="null" id="svg_4" y2="523.155807" x2="2406.920327" y1="543.155978" x1="1831.915817" fill-opacity="null" stroke-opacity="null" stroke-width="null" fill="none"/>
 </g>
</svg>